# Blender v3.3.1 OBJ File: 'kwast.blend'
# www.blender.org
mtllib kwast.mtl
o Cylinder
v 0.000000 -1.000000 -0.125000
v 0.000000 1.000000 -0.125000
v 0.024386 -1.000000 -0.122598
v 0.024386 1.000000 -0.122598
v 0.047835 -1.000000 -0.115485
v 0.047835 1.000000 -0.115485
v 0.069446 -1.000000 -0.103934
v 0.069446 1.000000 -0.103934
v 0.088388 -1.000000 -0.088388
v 0.088388 1.000000 -0.088388
v 0.103934 -1.000000 -0.069446
v 0.103934 1.000000 -0.069446
v 0.115485 -1.000000 -0.047835
v 0.115485 1.000000 -0.047835
v 0.122598 -1.000000 -0.024386
v 0.122598 1.000000 -0.024386
v 0.125000 -1.000000 0.000000
v 0.125000 1.000000 0.000000
v 0.122598 -1.000000 0.024386
v 0.122598 1.000000 0.024386
v 0.115485 -1.000000 0.047835
v 0.115485 1.000000 0.047835
v 0.103934 -1.000000 0.069446
v 0.103934 1.000000 0.069446
v 0.088388 -1.000000 0.088388
v 0.088388 1.000000 0.088388
v 0.069446 -1.000000 0.103934
v 0.069446 1.000000 0.103934
v 0.047835 -1.000000 0.115485
v 0.047835 1.000000 0.115485
v 0.024386 -1.000000 0.122598
v 0.024386 1.000000 0.122598
v 0.000000 -1.000000 0.125000
v 0.000000 1.000000 0.125000
v -0.024386 -1.000000 0.122598
v -0.024386 1.000000 0.122598
v -0.047835 -1.000000 0.115485
v -0.047835 1.000000 0.115485
v -0.069446 -1.000000 0.103934
v -0.069446 1.000000 0.103934
v -0.088388 -1.000000 0.088388
v -0.088388 1.000000 0.088388
v -0.103934 -1.000000 0.069446
v -0.103934 1.000000 0.069446
v -0.115485 -1.000000 0.047835
v -0.115485 1.000000 0.047835
v -0.122598 -1.000000 0.024386
v -0.122598 1.000000 0.024386
v -0.125000 -1.000000 0.000000
v -0.125000 1.000000 0.000000
v -0.122598 -1.000000 -0.024386
v -0.122598 1.000000 -0.024386
v -0.115485 -1.000000 -0.047835
v -0.115485 1.000000 -0.047835
v -0.103934 -1.000000 -0.069446
v -0.103934 1.000000 -0.069446
v -0.088388 -1.000000 -0.088388
v -0.088388 1.000000 -0.088388
v -0.069446 -1.000000 -0.103934
v -0.069446 1.000000 -0.103934
v -0.047835 -1.000000 -0.115485
v -0.047835 1.000000 -0.115485
v -0.024386 -1.000000 -0.122598
v -0.024386 1.000000 -0.122598
vt 1.000000 0.500000
vt 1.000000 1.000000
vt 0.968750 1.000000
vt 0.968750 0.500000
vt 0.937500 1.000000
vt 0.937500 0.500000
vt 0.906250 1.000000
vt 0.906250 0.500000
vt 0.875000 1.000000
vt 0.875000 0.500000
vt 0.843750 1.000000
vt 0.843750 0.500000
vt 0.812500 1.000000
vt 0.812500 0.500000
vt 0.781250 1.000000
vt 0.781250 0.500000
vt 0.750000 1.000000
vt 0.750000 0.500000
vt 0.718750 1.000000
vt 0.718750 0.500000
vt 0.687500 1.000000
vt 0.687500 0.500000
vt 0.656250 1.000000
vt 0.656250 0.500000
vt 0.625000 1.000000
vt 0.625000 0.500000
vt 0.593750 1.000000
vt 0.593750 0.500000
vt 0.562500 1.000000
vt 0.562500 0.500000
vt 0.531250 1.000000
vt 0.531250 0.500000
vt 0.500000 1.000000
vt 0.500000 0.500000
vt 0.468750 1.000000
vt 0.468750 0.500000
vt 0.437500 1.000000
vt 0.437500 0.500000
vt 0.406250 1.000000
vt 0.406250 0.500000
vt 0.375000 1.000000
vt 0.375000 0.500000
vt 0.343750 1.000000
vt 0.343750 0.500000
vt 0.312500 1.000000
vt 0.312500 0.500000
vt 0.281250 1.000000
vt 0.281250 0.500000
vt 0.250000 1.000000
vt 0.250000 0.500000
vt 0.218750 1.000000
vt 0.218750 0.500000
vt 0.187500 1.000000
vt 0.187500 0.500000
vt 0.156250 1.000000
vt 0.156250 0.500000
vt 0.125000 1.000000
vt 0.125000 0.500000
vt 0.093750 1.000000
vt 0.093750 0.500000
vt 0.062500 1.000000
vt 0.062500 0.500000
vt 0.296822 0.485388
vt 0.250000 0.490000
vt 0.203178 0.485388
vt 0.158156 0.471731
vt 0.116663 0.449553
vt 0.080294 0.419706
vt 0.050447 0.383337
vt 0.028269 0.341844
vt 0.014612 0.296822
vt 0.010000 0.250000
vt 0.014612 0.203178
vt 0.028269 0.158156
vt 0.050447 0.116663
vt 0.080294 0.080294
vt 0.116663 0.050447
vt 0.158156 0.028269
vt 0.203178 0.014612
vt 0.250000 0.010000
vt 0.296822 0.014612
vt 0.341844 0.028269
vt 0.383337 0.050447
vt 0.419706 0.080294
vt 0.449553 0.116663
vt 0.471731 0.158156
vt 0.485388 0.203178
vt 0.490000 0.250000
vt 0.485388 0.296822
vt 0.471731 0.341844
vt 0.449553 0.383337
vt 0.419706 0.419706
vt 0.383337 0.449553
vt 0.341844 0.471731
vt 0.031250 1.000000
vt 0.031250 0.500000
vt 0.000000 1.000000
vt 0.000000 0.500000
vt 0.750000 0.490000
vt 0.796822 0.485388
vt 0.841844 0.471731
vt 0.883337 0.449553
vt 0.919706 0.419706
vt 0.949553 0.383337
vt 0.971731 0.341844
vt 0.985388 0.296822
vt 0.990000 0.250000
vt 0.985388 0.203178
vt 0.971731 0.158156
vt 0.949553 0.116663
vt 0.919706 0.080294
vt 0.883337 0.050447
vt 0.841844 0.028269
vt 0.796822 0.014612
vt 0.750000 0.010000
vt 0.703178 0.014612
vt 0.658156 0.028269
vt 0.616663 0.050447
vt 0.580294 0.080294
vt 0.550447 0.116663
vt 0.528269 0.158156
vt 0.514612 0.203178
vt 0.510000 0.250000
vt 0.514612 0.296822
vt 0.528269 0.341844
vt 0.550447 0.383337
vt 0.580294 0.419706
vt 0.616663 0.449553
vt 0.658156 0.471731
vt 0.703178 0.485388
vn 0.0980 0.0000 -0.9952
vn 0.2903 0.0000 -0.9569
vn 0.4714 0.0000 -0.8819
vn 0.6344 0.0000 -0.7730
vn 0.7730 0.0000 -0.6344
vn 0.8819 0.0000 -0.4714
vn 0.9569 0.0000 -0.2903
vn 0.9952 0.0000 -0.0980
vn 0.9952 0.0000 0.0980
vn 0.9569 0.0000 0.2903
vn 0.8819 0.0000 0.4714
vn 0.7730 0.0000 0.6344
vn 0.6344 0.0000 0.7730
vn 0.4714 0.0000 0.8819
vn 0.2903 0.0000 0.9569
vn 0.0980 0.0000 0.9952
vn -0.0980 0.0000 0.9952
vn -0.2903 0.0000 0.9569
vn -0.4714 0.0000 0.8819
vn -0.6344 0.0000 0.7730
vn -0.7730 0.0000 0.6344
vn -0.8819 0.0000 0.4714
vn -0.9569 0.0000 0.2903
vn -0.9952 0.0000 0.0980
vn -0.9952 0.0000 -0.0980
vn -0.9569 0.0000 -0.2903
vn -0.8819 0.0000 -0.4714
vn -0.7730 0.0000 -0.6344
vn -0.6344 0.0000 -0.7730
vn -0.4714 0.0000 -0.8819
vn 0.0000 1.0000 0.0000
vn -0.2903 0.0000 -0.9569
vn -0.0980 0.0000 -0.9952
vn 0.0000 -1.0000 0.0000
usemtl Material.001
s off
f 1/1/1 2/2/1 4/3/1 3/4/1
f 3/4/2 4/3/2 6/5/2 5/6/2
f 5/6/3 6/5/3 8/7/3 7/8/3
f 7/8/4 8/7/4 10/9/4 9/10/4
f 9/10/5 10/9/5 12/11/5 11/12/5
f 11/12/6 12/11/6 14/13/6 13/14/6
f 13/14/7 14/13/7 16/15/7 15/16/7
f 15/16/8 16/15/8 18/17/8 17/18/8
f 17/18/9 18/17/9 20/19/9 19/20/9
f 19/20/10 20/19/10 22/21/10 21/22/10
f 21/22/11 22/21/11 24/23/11 23/24/11
f 23/24/12 24/23/12 26/25/12 25/26/12
f 25/26/13 26/25/13 28/27/13 27/28/13
f 27/28/14 28/27/14 30/29/14 29/30/14
f 29/30/15 30/29/15 32/31/15 31/32/15
f 31/32/16 32/31/16 34/33/16 33/34/16
f 33/34/17 34/33/17 36/35/17 35/36/17
f 35/36/18 36/35/18 38/37/18 37/38/18
f 37/38/19 38/37/19 40/39/19 39/40/19
f 39/40/20 40/39/20 42/41/20 41/42/20
f 41/42/21 42/41/21 44/43/21 43/44/21
f 43/44/22 44/43/22 46/45/22 45/46/22
f 45/46/23 46/45/23 48/47/23 47/48/23
f 47/48/24 48/47/24 50/49/24 49/50/24
f 49/50/25 50/49/25 52/51/25 51/52/25
f 51/52/26 52/51/26 54/53/26 53/54/26
f 53/54/27 54/53/27 56/55/27 55/56/27
f 55/56/28 56/55/28 58/57/28 57/58/28
f 57/58/29 58/57/29 60/59/29 59/60/29
f 59/60/30 60/59/30 62/61/30 61/62/30
f 4/63/31 2/64/31 64/65/31 62/66/31 60/67/31 58/68/31 56/69/31 54/70/31 52/71/31 50/72/31 48/73/31 46/74/31 44/75/31 42/76/31 40/77/31 38/78/31 36/79/31 34/80/31 32/81/31 30/82/31 28/83/31 26/84/31 24/85/31 22/86/31 20/87/31 18/88/31 16/89/31 14/90/31 12/91/31 10/92/31 8/93/31 6/94/31
f 61/62/32 62/61/32 64/95/32 63/96/32
f 63/96/33 64/95/33 2/97/33 1/98/33
f 1/99/34 3/100/34 5/101/34 7/102/34 9/103/34 11/104/34 13/105/34 15/106/34 17/107/34 19/108/34 21/109/34 23/110/34 25/111/34 27/112/34 29/113/34 31/114/34 33/115/34 35/116/34 37/117/34 39/118/34 41/119/34 43/120/34 45/121/34 47/122/34 49/123/34 51/124/34 53/125/34 55/126/34 57/127/34 59/128/34 61/129/34 63/130/34
o Cube_Cube.001
v -0.364367 1.009355 0.336862
v -0.364367 1.229355 0.336862
v -0.364367 1.009355 -0.363138
v -0.364367 1.229355 -0.363138
v 0.355633 1.009355 0.336862
v 0.355633 1.229355 0.336862
v 0.355633 1.009355 -0.363138
v 0.355633 1.229355 -0.363138
vt 0.375000 0.000000
vt 0.625000 0.000000
vt 0.625000 0.250000
vt 0.375000 0.250000
vt 0.625000 0.500000
vt 0.375000 0.500000
vt 0.625000 0.750000
vt 0.375000 0.750000
vt 0.625000 1.000000
vt 0.375000 1.000000
vt 0.125000 0.500000
vt 0.125000 0.750000
vt 0.875000 0.500000
vt 0.875000 0.750000
vn -1.0000 0.0000 0.0000
vn 0.0000 0.0000 -1.0000
vn 1.0000 0.0000 0.0000
vn 0.0000 0.0000 1.0000
vn 0.0000 -1.0000 0.0000
vn 0.0000 1.0000 0.0000
usemtl Material.002
s off
f 65/131/35 66/132/35 68/133/35 67/134/35
f 67/134/36 68/133/36 72/135/36 71/136/36
f 71/136/37 72/135/37 70/137/37 69/138/37
f 69/138/38 70/137/38 66/139/38 65/140/38
f 67/141/39 71/136/39 69/138/39 65/142/39
f 72/135/40 68/143/40 66/144/40 70/137/40
o Cube.001_Cube.002
v -0.350479 1.237399 0.119753
v -0.350479 1.677399 0.119753
v -0.350479 1.237399 0.039753
v -0.350479 1.677399 0.039753
v -0.210479 1.237399 0.119753
v -0.210479 1.677399 0.119753
v -0.210479 1.237399 0.039753
v -0.210479 1.677399 0.039753
vt 0.375000 0.000000
vt 0.625000 0.000000
vt 0.625000 0.250000
vt 0.375000 0.250000
vt 0.625000 0.500000
vt 0.375000 0.500000
vt 0.625000 0.750000
vt 0.375000 0.750000
vt 0.625000 1.000000
vt 0.375000 1.000000
vt 0.125000 0.500000
vt 0.125000 0.750000
vt 0.875000 0.500000
vt 0.875000 0.750000
vn -1.0000 0.0000 0.0000
vn 0.0000 0.0000 -1.0000
vn 1.0000 0.0000 0.0000
vn 0.0000 0.0000 1.0000
vn 0.0000 -1.0000 0.0000
vn 0.0000 1.0000 0.0000
usemtl None
s off
f 73/145/41 74/146/41 76/147/41 75/148/41
f 75/148/42 76/147/42 80/149/42 79/150/42
f 79/150/43 80/149/43 78/151/43 77/152/43
f 77/152/44 78/151/44 74/153/44 73/154/44
f 75/155/45 79/150/45 77/152/45 73/156/45
f 80/149/46 76/157/46 74/158/46 78/151/46
o Cube.002_Cube.003
v -0.350479 1.237399 -0.079102
v -0.350479 1.677399 -0.079102
v -0.350479 1.237399 -0.159102
v -0.350479 1.677399 -0.159102
v -0.210479 1.237399 -0.079102
v -0.210479 1.677399 -0.079102
v -0.210479 1.237399 -0.159102
v -0.210479 1.677399 -0.159102
vt 0.375000 0.000000
vt 0.625000 0.000000
vt 0.625000 0.250000
vt 0.375000 0.250000
vt 0.625000 0.500000
vt 0.375000 0.500000
vt 0.625000 0.750000
vt 0.375000 0.750000
vt 0.625000 1.000000
vt 0.375000 1.000000
vt 0.125000 0.500000
vt 0.125000 0.750000
vt 0.875000 0.500000
vt 0.875000 0.750000
vn -1.0000 0.0000 0.0000
vn 0.0000 0.0000 -1.0000
vn 1.0000 0.0000 0.0000
vn 0.0000 0.0000 1.0000
vn 0.0000 -1.0000 0.0000
vn 0.0000 1.0000 0.0000
usemtl None
s off
f 81/159/47 82/160/47 84/161/47 83/162/47
f 83/162/48 84/161/48 88/163/48 87/164/48
f 87/164/49 88/163/49 86/165/49 85/166/49
f 85/166/50 86/165/50 82/167/50 81/168/50
f 83/169/51 87/164/51 85/166/51 81/170/51
f 88/163/52 84/171/52 82/172/52 86/165/52
o Cube.003_Cube.004
v -0.350479 1.237399 0.293754
v -0.350479 1.677399 0.293754
v -0.350479 1.237399 0.213754
v -0.350479 1.677399 0.213754
v -0.210479 1.237399 0.293754
v -0.210479 1.677399 0.293754
v -0.210479 1.237399 0.213754
v -0.210479 1.677399 0.213754
vt 0.375000 0.000000
vt 0.625000 0.000000
vt 0.625000 0.250000
vt 0.375000 0.250000
vt 0.625000 0.500000
vt 0.375000 0.500000
vt 0.625000 0.750000
vt 0.375000 0.750000
vt 0.625000 1.000000
vt 0.375000 1.000000
vt 0.125000 0.500000
vt 0.125000 0.750000
vt 0.875000 0.500000
vt 0.875000 0.750000
vn -1.0000 0.0000 0.0000
vn 0.0000 0.0000 -1.0000
vn 1.0000 0.0000 0.0000
vn 0.0000 0.0000 1.0000
vn 0.0000 -1.0000 0.0000
vn 0.0000 1.0000 0.0000
usemtl None
s off
f 89/173/53 90/174/53 92/175/53 91/176/53
f 91/176/54 92/175/54 96/177/54 95/178/54
f 95/178/55 96/177/55 94/179/55 93/180/55
f 93/180/56 94/179/56 90/181/56 89/182/56
f 91/183/57 95/178/57 93/180/57 89/184/57
f 96/177/58 92/185/58 90/186/58 94/179/58
o Cube.004_Cube.005
v -0.350479 1.237399 -0.257152
v -0.350479 1.677399 -0.257152
v -0.350479 1.237399 -0.337152
v -0.350479 1.677399 -0.337152
v -0.210479 1.237399 -0.257152
v -0.210479 1.677399 -0.257152
v -0.210479 1.237399 -0.337152
v -0.210479 1.677399 -0.337152
vt 0.375000 0.000000
vt 0.625000 0.000000
vt 0.625000 0.250000
vt 0.375000 0.250000
vt 0.625000 0.500000
vt 0.375000 0.500000
vt 0.625000 0.750000
vt 0.375000 0.750000
vt 0.625000 1.000000
vt 0.375000 1.000000
vt 0.125000 0.500000
vt 0.125000 0.750000
vt 0.875000 0.500000
vt 0.875000 0.750000
vn -1.0000 0.0000 0.0000
vn 0.0000 0.0000 -1.0000
vn 1.0000 0.0000 0.0000
vn 0.0000 0.0000 1.0000
vn 0.0000 -1.0000 0.0000
vn 0.0000 1.0000 0.0000
usemtl None
s off
f 97/187/59 98/188/59 100/189/59 99/190/59
f 99/190/60 100/189/60 104/191/60 103/192/60
f 103/192/61 104/191/61 102/193/61 101/194/61
f 101/194/62 102/193/62 98/195/62 97/196/62
f 99/197/63 103/192/63 101/194/63 97/198/63
f 104/191/64 100/199/64 98/200/64 102/193/64
o Cube.005_Cube.006
v -0.072490 1.237399 0.293754
v -0.072490 1.677399 0.293754
v -0.072490 1.237399 0.213754
v -0.072490 1.677399 0.213754
v 0.067510 1.237399 0.293754
v 0.067510 1.677399 0.293754
v 0.067510 1.237399 0.213754
v 0.067510 1.677399 0.213754
vt 0.375000 0.000000
vt 0.625000 0.000000
vt 0.625000 0.250000
vt 0.375000 0.250000
vt 0.625000 0.500000
vt 0.375000 0.500000
vt 0.625000 0.750000
vt 0.375000 0.750000
vt 0.625000 1.000000
vt 0.375000 1.000000
vt 0.125000 0.500000
vt 0.125000 0.750000
vt 0.875000 0.500000
vt 0.875000 0.750000
vn -1.0000 0.0000 0.0000
vn 0.0000 0.0000 -1.0000
vn 1.0000 0.0000 0.0000
vn 0.0000 0.0000 1.0000
vn 0.0000 -1.0000 0.0000
vn 0.0000 1.0000 0.0000
usemtl None
s off
f 105/201/65 106/202/65 108/203/65 107/204/65
f 107/204/66 108/203/66 112/205/66 111/206/66
f 111/206/67 112/205/67 110/207/67 109/208/67
f 109/208/68 110/207/68 106/209/68 105/210/68
f 107/211/69 111/206/69 109/208/69 105/212/69
f 112/205/70 108/213/70 106/214/70 110/207/70
o Cube.006_Cube.007
v -0.071858 1.237399 0.124101
v -0.071858 1.677399 0.124101
v -0.071858 1.237399 0.044101
v -0.071858 1.677399 0.044101
v 0.068142 1.237399 0.124101
v 0.068142 1.677399 0.124101
v 0.068142 1.237399 0.044101
v 0.068142 1.677399 0.044101
vt 0.375000 0.000000
vt 0.625000 0.000000
vt 0.625000 0.250000
vt 0.375000 0.250000
vt 0.625000 0.500000
vt 0.375000 0.500000
vt 0.625000 0.750000
vt 0.375000 0.750000
vt 0.625000 1.000000
vt 0.375000 1.000000
vt 0.125000 0.500000
vt 0.125000 0.750000
vt 0.875000 0.500000
vt 0.875000 0.750000
vn -1.0000 0.0000 0.0000
vn 0.0000 0.0000 -1.0000
vn 1.0000 0.0000 0.0000
vn 0.0000 0.0000 1.0000
vn 0.0000 -1.0000 0.0000
vn 0.0000 1.0000 0.0000
usemtl None
s off
f 113/215/71 114/216/71 116/217/71 115/218/71
f 115/218/72 116/217/72 120/219/72 119/220/72
f 119/220/73 120/219/73 118/221/73 117/222/73
f 117/222/74 118/221/74 114/223/74 113/224/74
f 115/225/75 119/220/75 117/222/75 113/226/75
f 120/219/76 116/227/76 114/228/76 118/221/76
o Cube.007_Cube.008
v -0.071858 1.237399 -0.258930
v -0.071858 1.677399 -0.258930
v -0.071858 1.237399 -0.338930
v -0.071858 1.677399 -0.338930
v 0.068142 1.237399 -0.258930
v 0.068142 1.677399 -0.258930
v 0.068142 1.237399 -0.338930
v 0.068142 1.677399 -0.338930
vt 0.375000 0.000000
vt 0.625000 0.000000
vt 0.625000 0.250000
vt 0.375000 0.250000
vt 0.625000 0.500000
vt 0.375000 0.500000
vt 0.625000 0.750000
vt 0.375000 0.750000
vt 0.625000 1.000000
vt 0.375000 1.000000
vt 0.125000 0.500000
vt 0.125000 0.750000
vt 0.875000 0.500000
vt 0.875000 0.750000
vn -1.0000 0.0000 0.0000
vn 0.0000 0.0000 -1.0000
vn 1.0000 0.0000 0.0000
vn 0.0000 0.0000 1.0000
vn 0.0000 -1.0000 0.0000
vn 0.0000 1.0000 0.0000
usemtl None
s off
f 121/229/77 122/230/77 124/231/77 123/232/77
f 123/232/78 124/231/78 128/233/78 127/234/78
f 127/234/79 128/233/79 126/235/79 125/236/79
f 125/236/80 126/235/80 122/237/80 121/238/80
f 123/239/81 127/234/81 125/236/81 121/240/81
f 128/233/82 124/241/82 122/242/82 126/235/82
o Cube.008_Cube.009
v -0.071858 1.237399 -0.078956
v -0.071858 1.677399 -0.078956
v -0.071858 1.237399 -0.158956
v -0.071858 1.677399 -0.158956
v 0.068142 1.237399 -0.078956
v 0.068142 1.677399 -0.078956
v 0.068142 1.237399 -0.158956
v 0.068142 1.677399 -0.158956
vt 0.375000 0.000000
vt 0.625000 0.000000
vt 0.625000 0.250000
vt 0.375000 0.250000
vt 0.625000 0.500000
vt 0.375000 0.500000
vt 0.625000 0.750000
vt 0.375000 0.750000
vt 0.625000 1.000000
vt 0.375000 1.000000
vt 0.125000 0.500000
vt 0.125000 0.750000
vt 0.875000 0.500000
vt 0.875000 0.750000
vn -1.0000 0.0000 0.0000
vn 0.0000 0.0000 -1.0000
vn 1.0000 0.0000 0.0000
vn 0.0000 0.0000 1.0000
vn 0.0000 -1.0000 0.0000
vn 0.0000 1.0000 0.0000
usemtl None
s off
f 129/243/83 130/244/83 132/245/83 131/246/83
f 131/246/84 132/245/84 136/247/84 135/248/84
f 135/248/85 136/247/85 134/249/85 133/250/85
f 133/250/86 134/249/86 130/251/86 129/252/86
f 131/253/87 135/248/87 133/250/87 129/254/87
f 136/247/88 132/255/88 130/256/88 134/249/88
o Cube.009_Cube.010
v 0.204657 1.237399 0.120455
v 0.204657 1.677399 0.120455
v 0.204657 1.237399 0.040455
v 0.204657 1.677399 0.040455
v 0.344657 1.237399 0.120455
v 0.344657 1.677399 0.120455
v 0.344657 1.237399 0.040455
v 0.344657 1.677399 0.040455
vt 0.375000 0.000000
vt 0.625000 0.000000
vt 0.625000 0.250000
vt 0.375000 0.250000
vt 0.625000 0.500000
vt 0.375000 0.500000
vt 0.625000 0.750000
vt 0.375000 0.750000
vt 0.625000 1.000000
vt 0.375000 1.000000
vt 0.125000 0.500000
vt 0.125000 0.750000
vt 0.875000 0.500000
vt 0.875000 0.750000
vn -1.0000 0.0000 0.0000
vn 0.0000 0.0000 -1.0000
vn 1.0000 0.0000 0.0000
vn 0.0000 0.0000 1.0000
vn 0.0000 -1.0000 0.0000
vn 0.0000 1.0000 0.0000
usemtl None
s off
f 137/257/89 138/258/89 140/259/89 139/260/89
f 139/260/90 140/259/90 144/261/90 143/262/90
f 143/262/91 144/261/91 142/263/91 141/264/91
f 141/264/92 142/263/92 138/265/92 137/266/92
f 139/267/93 143/262/93 141/264/93 137/268/93
f 144/261/94 140/269/94 138/270/94 142/263/94
o Cube.010_Cube.011
v 0.204657 1.237399 -0.080721
v 0.204657 1.677399 -0.080721
v 0.204657 1.237399 -0.160721
v 0.204657 1.677399 -0.160721
v 0.344657 1.237399 -0.080721
v 0.344657 1.677399 -0.080721
v 0.344657 1.237399 -0.160721
v 0.344657 1.677399 -0.160721
vt 0.375000 0.000000
vt 0.625000 0.000000
vt 0.625000 0.250000
vt 0.375000 0.250000
vt 0.625000 0.500000
vt 0.375000 0.500000
vt 0.625000 0.750000
vt 0.375000 0.750000
vt 0.625000 1.000000
vt 0.375000 1.000000
vt 0.125000 0.500000
vt 0.125000 0.750000
vt 0.875000 0.500000
vt 0.875000 0.750000
vn -1.0000 0.0000 0.0000
vn 0.0000 0.0000 -1.0000
vn 1.0000 0.0000 0.0000
vn 0.0000 0.0000 1.0000
vn 0.0000 -1.0000 0.0000
vn 0.0000 1.0000 0.0000
usemtl None
s off
f 145/271/95 146/272/95 148/273/95 147/274/95
f 147/274/96 148/273/96 152/275/96 151/276/96
f 151/276/97 152/275/97 150/277/97 149/278/97
f 149/278/98 150/277/98 146/279/98 145/280/98
f 147/281/99 151/276/99 149/278/99 145/282/99
f 152/275/100 148/283/100 146/284/100 150/277/100
o Cube.011_Cube.012
v 0.204657 1.237399 0.298273
v 0.204657 1.677399 0.298273
v 0.204657 1.237399 0.218273
v 0.204657 1.677399 0.218273
v 0.344657 1.237399 0.298273
v 0.344657 1.677399 0.298273
v 0.344657 1.237399 0.218273
v 0.344657 1.677399 0.218273
vt 0.375000 0.000000
vt 0.625000 0.000000
vt 0.625000 0.250000
vt 0.375000 0.250000
vt 0.625000 0.500000
vt 0.375000 0.500000
vt 0.625000 0.750000
vt 0.375000 0.750000
vt 0.625000 1.000000
vt 0.375000 1.000000
vt 0.125000 0.500000
vt 0.125000 0.750000
vt 0.875000 0.500000
vt 0.875000 0.750000
vn -1.0000 0.0000 0.0000
vn 0.0000 0.0000 -1.0000
vn 1.0000 0.0000 0.0000
vn 0.0000 0.0000 1.0000
vn 0.0000 -1.0000 0.0000
vn 0.0000 1.0000 0.0000
usemtl None
s off
f 153/285/101 154/286/101 156/287/101 155/288/101
f 155/288/102 156/287/102 160/289/102 159/290/102
f 159/290/103 160/289/103 158/291/103 157/292/103
f 157/292/104 158/291/104 154/293/104 153/294/104
f 155/295/105 159/290/105 157/292/105 153/296/105
f 160/289/106 156/297/106 154/298/106 158/291/106
o Cube.012_Cube.013
v 0.204657 1.237399 -0.258930
v 0.204657 1.677399 -0.258930
v 0.204657 1.237399 -0.338930
v 0.204657 1.677399 -0.338930
v 0.344657 1.237399 -0.258930
v 0.344657 1.677399 -0.258930
v 0.344657 1.237399 -0.338930
v 0.344657 1.677399 -0.338930
vt 0.375000 0.000000
vt 0.625000 0.000000
vt 0.625000 0.250000
vt 0.375000 0.250000
vt 0.625000 0.500000
vt 0.375000 0.500000
vt 0.625000 0.750000
vt 0.375000 0.750000
vt 0.625000 1.000000
vt 0.375000 1.000000
vt 0.125000 0.500000
vt 0.125000 0.750000
vt 0.875000 0.500000
vt 0.875000 0.750000
vn -1.0000 0.0000 0.0000
vn 0.0000 0.0000 -1.0000
vn 1.0000 0.0000 0.0000
vn 0.0000 0.0000 1.0000
vn 0.0000 -1.0000 0.0000
vn 0.0000 1.0000 0.0000
usemtl None
s off
f 161/299/107 162/300/107 164/301/107 163/302/107
f 163/302/108 164/301/108 168/303/108 167/304/108
f 167/304/109 168/303/109 166/305/109 165/306/109
f 165/306/110 166/305/110 162/307/110 161/308/110
f 163/309/111 167/304/111 165/306/111 161/310/111
f 168/303/112 164/311/112 162/312/112 166/305/112
